<svg xmlns="http://www.w3.org/2000/svg" viewBox="0 0 32 32" id="Crystal-Ball--Streamline-Twemoji" height="32" width="32"><desc>Crystal Ball Streamline Emoji: https://streamlinehq.com</desc><path fill="#bf6952" d="m25.54311111111111 25.570666666666664 -19.073777777777774 0.06755555555555555 -1.4657777777777776 4.297777777777777c-0.05511111111111111 0.16622222222222222 -0.08977777777777778 0.344 -0.06488888888888888 0.5173333333333333 0.1288888888888889 0.8746666666666666 0.8826666666666666 1.5466666666666666 1.7928888888888888 1.5466666666666666h18.572444444444443c0.9102222222222222 0 1.664 -0.6719999999999999 1.7928888888888888 -1.5466666666666666 0.025777777777777778 -0.17333333333333334 -0.008888888888888889 -0.3511111111111111 -0.06488888888888888 -0.5173333333333333l-1.488888888888889 -4.365333333333333z" stroke-width="0.8889"></path><path fill="#854836" d="m25.54311111111111 25.570666666666664 -0.1688888888888889 -0.49422222222222223c-0.1768888888888889 -0.5315555555555556 -0.6746666666666666 -0.8897777777777777 -1.2346666666666666 -0.8897777777777777H7.895999999999999c-0.5599999999999999 0 -1.0577777777777777 0.3582222222222222 -1.2346666666666666 0.8897777777777777l-0.19199999999999998 0.5617777777777777c2.6026666666666665 2.0835555555555554 5.898666666666666 3.336888888888889 9.491555555555555 3.336888888888889 3.6337777777777776 0 6.966222222222221 -1.2782222222222221 9.58222222222222 -3.404444444444444z" stroke-width="0.8889"></path><path fill="#aa8dd8" d="M2.3715555555555556 13.76711111111111a13.589333333333332 13.589333333333332 0 1 0 27.178666666666665 0 13.589333333333332 13.589333333333332 0 1 0 -27.178666666666665 0" stroke-width="0.8889"></path><path fill="#744eaa" d="M16.952 10.995555555555555a3.728888888888889 3.728888888888889 0 1 0 7.457777777777778 0 3.728888888888889 3.728888888888889 0 1 0 -7.457777777777778 0" stroke-width="0.8889"></path><path fill="#744eaa" d="M10.425777777777776 16.58844444444444a2.796444444444444 2.796444444444444 0 1 0 5.592888888888888 0 2.796444444444444 2.796444444444444 0 1 0 -5.592888888888888 0" stroke-width="0.8889"></path><path fill="#744eaa" d="M12.289777777777777 4.469333333333332a1.8648888888888886 1.8648888888888886 0 1 0 3.729777777777777 0 1.8648888888888886 1.8648888888888886 0 1 0 -3.729777777777777 0" stroke-width="0.8889"></path></svg>